
<svg
		id="Layer_1"
		xmlns="http://www.w3.org/2000/svg"
		x={0}
		y={0}
		viewBox="0 0 1000 1000"
		style={{
		enableBackground: "new 0 0 100 100",
		}}
		xmlSpace="preserve"
		>
<style>{".st1{fill:#00d69e}.st2{fill:#002735}"}</style>
<path
className="st1"
d="M386.47 455.74c-40.16 0-72.84 32.67-72.84 72.84v35c0 7.01 5.7 12.71 12.71 12.71s12.71-5.7 12.71-12.71v-35c0-26.15 21.27-47.42 47.42-47.42 7.01 0 12.71-5.7 12.71-12.71s-5.71-12.71-12.71-12.71zM324.07 470.96c-18.22-29.16-49.61-46.57-83.96-46.57-7.01 0-12.71 5.7-12.71 12.71s5.7 12.71 12.71 12.71c25.53 0 48.86 12.94 62.4 34.63 2.34 3.74 6.37 5.98 10.79 5.98 1.1 0 2.11-.5 2.77-1.37 1.28-1.71.66-3.84-.13-6.53-.17-.59-.41-1.42-.57-2.09 1.05-.4 2.25-.66 3.35-.9 2.5-.54 5.08-1.09 6.11-3.52.63-1.53.38-3.22-.76-5.05z"
/>
<path
className="st1"
d="M382.08 424.38c-54.55 0-98.94 44.38-98.94 98.94 0 7.01 5.7 12.71 12.71 12.71s12.71-5.7 12.71-12.71c0-40.54 32.98-73.52 73.52-73.52 7.01 0 12.71-5.7 12.71-12.71s-5.7-12.71-12.71-12.71z"
/>
<path
className="st1"
d="M235.73 455.74c-7.01 0-12.71 5.7-12.71 12.71s5.7 12.71 12.71 12.71c26.15 0 47.42 21.27 47.42 47.42v35c0 7.01 5.7 12.71 12.71 12.71s12.71-5.7 12.71-12.71v-35c-.01-40.16-32.68-72.84-72.84-72.84z"
/>
<path
className="st2"
d="M528.27 540.41c4.59 0 9.16 0 13.73-.01.28 0 .42.11.53.34 1.35 2.64 3.69 3.81 6.47 4.13 2.67.31 5.3.04 7.7-1.32 2.66-1.5 3.93-3.92 4.17-6.85.15-1.84.03-3.7.03-5.72-.75.84-1.44 1.52-2.23 2.1-1.99 1.47-4.23 2.35-6.68 2.51-4.54.31-8.88-.48-12.84-2.79-5.24-3.06-7.95-7.81-8.99-13.66-.31-1.73-.39-3.47-.38-5.22 0-7.22.01-14.44-.01-21.67 0-.7.15-.93.89-.92 3.82.04 7.63.04 11.45 0 .67-.01.81.19.81.83-.02 7.54-.05 15.09.03 22.63.05 4.18 2.93 7.29 7.06 7.94 1.82.29 3.6.19 5.34-.39 3.44-1.14 5.57-4.11 5.58-7.81.02-7.4.02-14.79-.01-22.19 0-.76.14-1.03.97-1.01 3.79.05 7.57.04 11.36.01.64-.01.83.13.83.8-.02 14.47-.01 28.95-.02 43.42-.01 5.22-1.34 10.01-4.8 14.04-2.81 3.29-6.42 5.32-10.57 6.4-5.7 1.47-11.41 1.53-17.02-.41-6.73-2.32-10.94-7.11-13.08-13.81-.13-.43-.33-.85-.32-1.37zM466.08 468.58c9.26 0 18.53.01 27.79-.02.75 0 1.03.12 1.01.96-.06 3.67-.06 7.34 0 11.01.01.88-.26 1.01-1.06 1.01-6.7-.03-13.4-.01-20.1-.04-.74 0-.89.19-.89.91.02 17.85.01 35.7.03 53.56 0 .72-.1.97-.92.96-3.93-.05-7.87-.05-11.8 0-.75.01-.89-.22-.89-.92.02-17.82.01-35.65.04-53.47 0-.84-.2-1.04-1.04-1.03-6.67.04-13.34 0-20.01.04-.84.01-.97-.26-.96-1.01.04-3.7.04-7.4 0-11.1-.01-.76.21-.88.91-.88 9.3.03 18.59.02 27.89.02zM730.91 505.63h-13.04c-.3 0-.61.09-.8-.32-1.08-2.25-3.05-3.25-5.37-3.72-2.18-.44-4.34-.29-6.48.26-.79.21-1.53.56-2.12 1.16-1.29 1.31-1 3.34.62 4.2 1.18.63 2.5.73 3.8.86 3.93.41 7.9.56 11.81 1.22 2.87.48 5.59 1.39 7.89 3.25 3.28 2.65 4.28 6.26 4.06 10.28-.34 6.24-3.75 10.33-9.32 12.76-4.55 1.98-9.36 2.43-14.27 2.09-3.69-.26-7.24-1.03-10.53-2.79-4.73-2.52-7.64-6.4-8.73-11.65-.1-.46-.01-.61.48-.61 4.16.02 8.33.01 12.49.01.24 0 .46-.01.59.25 1.13 2.29 3.2 3.2 5.54 3.62 2.54.46 5.09.5 7.62-.13a5.43 5.43 0 0 0 1.82-.82c.99-.7 1.44-1.66 1.28-2.86-.14-1.13-.87-1.8-1.88-2.19-1.27-.49-2.61-.54-3.94-.7-3.64-.42-7.31-.61-10.92-1.26-3.45-.61-6.58-1.96-8.99-4.6-4.44-4.87-4.19-12.92.52-17.77 2.44-2.52 5.48-4 8.85-4.77 6.42-1.46 12.77-1.36 18.9 1.29 5.36 2.32 8.8 6.33 10.02 12.11.04.25.06.51.1.83zM747.48 513.3c0-3.42-.02-6.33.02-9.24.01-.64-.14-.84-.81-.83-3.09.04-6.18 0-9.26.03-.64.01-.89-.09-.88-.83.05-3.44.03-6.87.01-10.31-.01-.61.17-.79.78-.78 2.18.04 4.37.02 6.55.01 2.68-.01 3.6-.94 3.6-3.64.01-3.7.04-7.4-.03-11.09-.02-.93.28-1.07 1.11-1.06 3.67.05 7.34.05 11.01 0 .81-.01 1.07.13 1.06 1.01-.05 4.66-.01 9.32-.04 13.98 0 .65.16.83.82.83 4.66-.03 9.32.01 13.98-.04.81-.01.94.24.93.97-.04 3.35-.04 6.7 0 10.05.01.7-.13.92-.88.91-4.66-.04-9.32 0-13.98-.04-.7 0-.87.19-.87.87.03 4.4.01 8.79.02 13.19 0 1.23.09 2.45.48 3.62.74 2.19 2.61 3.44 5.36 3.59 3.06.16 6.11-.04 9.15-.38.6-.07.71.09.71.65-.02 3.73-.02 7.45 0 11.18 0 .47-.05.73-.62.79-4.09.47-8.19.73-12.29.51-4.25-.24-8.19-1.41-11.29-4.56-2.62-2.66-3.81-5.99-4.32-9.6-.5-3.42-.26-6.87-.32-9.79zM588.39 491.36c2.04 0 4.08.03 6.12-.02.64-.01.88.21 1.08.79 3.29 9.94 6.61 19.87 9.92 29.8.02.05.02.12.04.17.15.33.19.8.69.78.44-.02.51-.43.61-.75.67-2.04 1.34-4.08 2-6.12 2.61-7.97 5.22-15.93 7.81-23.91.18-.54.37-.77 1-.77 4.05.04 8.1.03 12.15.01.58 0 .85 0 .57.73-4.74 12.59-9.45 25.2-14.18 37.79-.52 1.39-1.2 2.7-2.09 3.9-1.36 1.84-3.15 2.98-5.42 3.34-1.89.3-3.78.31-5.65-.07-2.93-.6-4.89-2.46-6.21-5.04-1.47-2.87-2.42-5.96-3.56-8.97-3.88-10.25-7.73-20.52-11.6-30.78-.34-.91-.34-.91.61-.91 2.03.03 4.07.03 6.11.03zM493.3 524.47c0-3.78-.09-7.57.02-11.35.12-3.83.84-7.56 2.54-11.04 2.69-5.54 7.29-8.57 13.16-9.9 4.01-.91 8.09-.81 12.16-.81 1.38 0 1.38 0 1.38 1.37 0 3.55-.03 7.1.02 10.65.01.81-.24.94-.97.93-2.21-.02-4.44-.21-6.63.17-4.99.86-8.49 4.98-8.55 10.19-.08 7.1-.05 14.2-.03 21.31 0 .77-.18.95-.95.95-3.81-.04-7.63-.03-11.44-.01-.6 0-.77-.14-.77-.76.03-3.9.02-7.8.02-11.7h.04zM668.89 522.38c-.35 0-.5.15-.67.43-.65 1.12-1.63 1.87-2.8 2.4-1.58.72-3.27 1-4.99 1.13-3.22.25-6.33-.09-9.22-1.67-1.36-.74-2.5-1.7-3.09-3.19-.73-1.86-.15-2.73 1.8-2.73 9.99 0 19.98 0 29.97.01.51 0 .86 0 .97-.66.48-2.91.74-5.83.36-8.78-.91-7.04-4.34-12.44-10.58-15.91-5.45-3.03-11.33-3.55-17.36-2.41-6.37 1.2-11.54 4.4-15.06 9.94-3.61 5.69-4.47 11.94-3.14 18.45 1.74 8.54 6.71 14.42 15.08 17.18 5.68 1.87 11.45 1.57 17.1-.09 7.15-2.1 11.77-6.83 13.95-14.09-4.17 0-8.25 0-12.32-.01zm-20.97-14.32c1.26-3.36 3.76-5.31 7.15-6.15 3.43-.85 6.82-.7 10.02.94 1.77.91 3.16 2.19 3.54 4.26.25 1.32-.14 1.79-1.48 1.8-3.12.01-6.23 0-9.35 0-3.09 0-6.17-.02-9.26.02-.74 0-.88-.16-.62-.87z"
/></svg>