
<svg
   xmlns:dc="http://purl.org/dc/elements/1.1/"
   xmlns:cc="http://creativecommons.org/ns#"
   xmlns:rdf="http://www.w3.org/1999/02/22-rdf-syntax-ns#"
   xmlns:svg="http://www.w3.org/2000/svg"
   xmlns="http://www.w3.org/2000/svg"
   viewBox="0 0 1333.3333 1333.3333"
   height="1333.3333"
   width="1333.3333"
   xml:space="preserve"
   id="svg2"
   version="1.1"><metadata
     id="metadata8"><rdf:RDF><cc:Work
         rdf:about=""><dc:format>image/svg+xml</dc:format><dc:type
           rdf:resource="http://purl.org/dc/dcmitype/StillImage" /></cc:Work></rdf:RDF></metadata><defs
     id="defs6"><clipPath
       id="clipPath18"
       clipPathUnits="userSpaceOnUse"><path
         id="path16"
         d="M 0,1000 H 1000 V 0 H 0 Z" /></clipPath></defs><g
     transform="matrix(1.3333333,0,0,-1.3333333,0,1333.3333)"
     id="g10"><g
       id="g12"><g
         clip-path="url(#clipPath18)"
         id="g14"><g
           transform="translate(386.4655,544.259)"
           id="g20"><path
             id="path22"
             style="fill:#00d69e;fill-opacity:1;fill-rule:nonzero;stroke:none"
             d="m 0,0 c -40.163,0 -72.837,-32.674 -72.837,-72.837 v -34.997 c 0,-7.007 5.701,-12.708 12.708,-12.708 7.007,0 12.708,5.701 12.708,12.708 v 34.997 c 0,26.148 21.273,47.421 47.421,47.421 7.007,0 12.708,5.7 12.708,12.708 C 12.708,-5.701 7.007,0 0,0" /></g><g
           transform="translate(382.0828,550.2001)"
           id="g24"><path
             id="path26"
             style="fill:#00d69e;fill-opacity:1;fill-rule:nonzero;stroke:none"
             d="m 0,0 c 7.007,0 12.708,5.701 12.708,12.708 0,7.008 -5.701,12.708 -12.708,12.708 -27.794,0 -52.944,-11.525 -70.933,-30.042 -18.426,19.082 -43.798,30.042 -71.042,30.042 -7.007,0 -12.708,-5.7 -12.708,-12.708 0,-7.007 5.701,-12.708 12.708,-12.708 21.649,0 41.714,-9.314 55.575,-25.368 -1.318,-2.355 -2.545,-4.767 -3.671,-7.235 -13.369,16.267 -33.635,26.662 -56.286,26.662 -7.007,0 -12.708,-5.701 -12.708,-12.708 0,-7.008 5.701,-12.708 12.708,-12.708 26.148,0 47.421,-21.273 47.421,-47.422 v -34.996 c 0,-7.007 5.701,-12.708 12.708,-12.708 7.008,0 12.709,5.701 12.709,12.708 v 34.996 c 0,1.262 -0.033,2.516 -0.097,3.762 0.058,0.492 0.097,0.99 0.097,1.497 C -73.519,-32.981 -40.539,0 0,0" /></g><g
           transform="translate(528.2744,459.5943)"
           id="g28"><path
             id="path30"
             style="fill:#002735;fill-opacity:1;fill-rule:nonzero;stroke:none"
             d="m 0,0 c 4.589,0 9.161,-0.003 13.732,0.007 0.281,0 0.418,-0.114 0.533,-0.34 1.351,-2.637 3.69,-3.807 6.473,-4.133 2.669,-0.313 5.298,-0.04 7.701,1.317 2.66,1.503 3.929,3.916 4.17,6.853 0.151,1.84 0.028,3.702 0.028,5.723 C 31.89,8.587 31.192,7.905 30.405,7.323 28.416,5.853 26.18,4.977 23.723,4.811 19.186,4.506 14.846,5.287 10.882,7.602 5.647,10.661 2.928,15.415 1.892,21.259 1.586,22.986 1.507,24.726 1.508,26.476 1.512,33.698 1.52,40.921 1.494,48.143 c -0.003,0.702 0.149,0.931 0.894,0.924 3.816,-0.04 7.633,-0.037 11.448,-0.002 0.673,0.006 0.811,-0.192 0.81,-0.832 -0.015,-7.543 -0.053,-15.086 0.03,-22.628 0.046,-4.177 2.931,-7.285 7.065,-7.945 1.819,-0.29 3.603,-0.187 5.343,0.392 3.442,1.144 5.572,4.113 5.581,7.813 0.018,7.398 0.017,14.795 -0.01,22.192 -0.003,0.759 0.137,1.025 0.972,1.014 3.787,-0.052 7.574,-0.038 11.361,-0.008 0.635,0.005 0.831,-0.127 0.83,-0.803 C 45.795,33.786 45.808,19.312 45.794,4.838 45.788,-0.379 44.45,-5.168 40.995,-9.207 c -2.813,-3.289 -6.42,-5.324 -10.572,-6.397 -5.705,-1.475 -11.412,-1.526 -17.02,0.411 C 6.673,-12.87 2.462,-8.087 0.325,-1.383 0.187,-0.949 -0.016,-0.522 0,0" /></g><g
           transform="translate(466.0763,531.4166)"
           id="g32"><path
             id="path34"
             style="fill:#002735;fill-opacity:1;fill-rule:nonzero;stroke:none"
             d="m 0,0 c 9.264,0 18.527,-0.008 27.791,0.016 0.747,0.001 1.026,-0.118 1.013,-0.962 -0.055,-3.669 -0.058,-7.339 0.002,-11.008 0.014,-0.884 -0.259,-1.013 -1.06,-1.009 -6.7,0.033 -13.4,0.005 -20.1,0.038 -0.739,0.003 -0.891,-0.191 -0.89,-0.905 0.021,-17.852 0.012,-35.704 0.032,-53.556 10e-4,-0.718 -0.101,-0.974 -0.915,-0.963 -3.932,0.053 -7.865,0.046 -11.797,0.004 -0.753,-0.008 -0.887,0.216 -0.886,0.92 0.02,17.823 0.009,35.646 0.037,53.469 10e-4,0.843 -0.199,1.038 -1.038,1.033 -6.671,-0.039 -13.342,-0.004 -20.013,-0.044 -0.836,-0.005 -0.972,0.256 -0.964,1.009 0.037,3.698 0.042,7.397 -0.004,11.095 -0.01,0.755 0.215,0.881 0.914,0.879 C -18.586,-0.008 -9.293,0 0,0" /></g><g
           transform="translate(730.9116,494.3697)"
           id="g36"><path
             id="path38"
             style="fill:#002735;fill-opacity:1;fill-rule:nonzero;stroke:none"
             d="m 0,0 h -5.095 c -2.65,0 -5.3,-0.002 -7.951,0.002 -0.301,0.001 -0.606,-0.087 -0.802,0.32 -1.083,2.245 -3.051,3.251 -5.368,3.72 -2.178,0.441 -4.344,0.295 -6.482,-0.259 -0.794,-0.206 -1.528,-0.563 -2.117,-1.161 -1.288,-1.309 -0.998,-3.336 0.618,-4.203 1.182,-0.634 2.496,-0.727 3.797,-0.864 3.935,-0.412 7.898,-0.564 11.806,-1.222 2.868,-0.483 5.59,-1.39 7.887,-3.246 3.278,-2.651 4.279,-6.257 4.058,-10.282 -0.343,-6.245 -3.755,-10.333 -9.317,-12.756 -4.55,-1.983 -9.36,-2.427 -14.271,-2.086 -3.691,0.256 -7.242,1.032 -10.533,2.785 -4.727,2.519 -7.637,6.403 -8.731,11.651 -0.097,0.462 -0.012,0.613 0.484,0.612 4.165,-0.016 8.33,-0.01 12.495,-0.008 0.237,0 0.464,0.011 0.594,-0.251 1.132,-2.293 3.203,-3.2 5.535,-3.624 2.538,-0.461 5.092,-0.503 7.62,0.128 0.651,0.162 1.264,0.431 1.816,0.824 0.988,0.704 1.438,1.658 1.285,2.865 -0.145,1.134 -0.869,1.8 -1.885,2.192 -1.265,0.488 -2.61,0.545 -3.936,0.7 -3.64,0.424 -7.311,0.611 -10.921,1.255 -3.445,0.615 -6.583,1.956 -8.992,4.598 -4.439,4.867 -4.192,12.915 0.517,17.769 2.443,2.517 5.482,3.997 8.853,4.766 6.418,1.464 12.775,1.364 18.901,-1.286 5.364,-2.32 8.796,-6.327 10.02,-12.113 C -0.062,0.576 -0.043,0.318 0,0" /></g><g
           transform="translate(747.4781,486.7014)"
           id="g40"><path
             id="path42"
             style="fill:#002735;fill-opacity:1;fill-rule:nonzero;stroke:none"
             d="m 0,0 c 0,3.42 -0.02,6.332 0.016,9.244 0.007,0.643 -0.139,0.837 -0.811,0.828 -3.088,-0.039 -6.176,-0.002 -9.263,-0.03 -0.636,-0.006 -0.895,0.095 -0.885,0.829 0.045,3.436 0.035,6.873 0.006,10.309 -0.005,0.611 0.166,0.785 0.777,0.775 2.184,-0.036 4.369,-0.02 6.554,-0.012 2.678,0.011 3.6,0.942 3.604,3.643 0.006,3.699 0.041,7.398 -0.025,11.095 -0.017,0.929 0.275,1.067 1.107,1.057 3.67,-0.046 7.341,-0.046 11.011,10e-4 0.806,0.01 1.065,-0.132 1.055,-1.011 -0.052,-4.659 -0.01,-9.318 -0.04,-13.977 -0.004,-0.654 0.158,-0.83 0.818,-0.826 4.661,0.03 9.322,-0.008 13.982,0.039 0.81,0.008 0.939,-0.24 0.931,-0.971 -0.039,-3.349 -0.039,-6.698 0,-10.046 0.008,-0.704 -0.132,-0.919 -0.883,-0.913 -4.661,0.041 -9.321,0.005 -13.982,0.037 -0.696,0.005 -0.871,-0.185 -0.866,-0.871 0.031,-4.397 0.014,-8.794 0.018,-13.191 10e-4,-1.226 0.086,-2.445 0.483,-3.617 0.741,-2.189 2.609,-3.442 5.362,-3.589 3.062,-0.165 6.112,0.039 9.153,0.382 0.598,0.067 0.713,-0.088 0.709,-0.652 -0.023,-3.727 -0.018,-7.454 -0.003,-11.182 0.003,-0.474 -0.054,-0.73 -0.621,-0.794 -4.087,-0.466 -8.187,-0.735 -12.294,-0.505 -4.253,0.238 -8.187,1.412 -11.286,4.559 -2.623,2.664 -3.808,5.99 -4.32,9.603 C -0.177,-6.368 0.057,-2.925 0,0" /></g><g
           transform="translate(588.3908,508.6425)"
           id="g44"><path
             id="path46"
             style="fill:#002735;fill-opacity:1;fill-rule:nonzero;stroke:none"
             d="m 0,0 c 2.039,0 4.079,-0.03 6.117,0.017 0.64,0.015 0.882,-0.206 1.076,-0.792 3.291,-9.939 6.606,-19.871 9.916,-29.804 0.018,-0.055 0.016,-0.118 0.039,-0.17 0.145,-0.335 0.187,-0.799 0.686,-0.778 0.437,0.019 0.507,0.432 0.613,0.755 0.673,2.038 1.336,4.079 2.003,6.119 2.606,7.967 5.217,15.933 7.807,23.905 0.176,0.542 0.369,0.774 1.004,0.768 4.049,-0.039 8.098,-0.027 12.147,-0.012 0.576,0.002 0.847,-0.003 0.571,-0.735 -4.741,-12.592 -9.453,-25.196 -14.179,-37.794 -0.522,-1.391 -1.205,-2.703 -2.093,-3.903 -1.36,-1.84 -3.148,-2.98 -5.421,-3.337 -1.886,-0.296 -3.776,-0.311 -5.646,0.071 -2.929,0.598 -4.886,2.461 -6.207,5.035 -1.475,2.873 -2.421,5.963 -3.559,8.972 C 0.994,-21.43 -2.86,-11.167 -6.725,-0.908 -7.067,-0.001 -7.068,0 -6.117,0 -4.078,0 -2.039,0 0,0" /></g><g
           transform="translate(493.2992,475.5341)"
           id="g48"><path
             id="path50"
             style="fill:#002735;fill-opacity:1;fill-rule:nonzero;stroke:none"
             d="m 0,0 c 0,3.784 -0.089,7.57 0.025,11.351 0.116,3.829 0.845,7.558 2.537,11.042 2.692,5.544 7.292,8.57 13.157,9.901 4.01,0.911 8.091,0.81 12.163,0.814 1.376,0.002 1.376,0 1.376,-1.373 0,-3.551 -0.03,-7.103 0.022,-10.653 0.012,-0.807 -0.239,-0.937 -0.971,-0.932 -2.21,0.015 -4.438,0.205 -6.628,-0.171 -4.992,-0.857 -8.494,-4.976 -8.555,-10.19 -0.082,-7.102 -0.054,-14.204 -0.031,-21.306 0.002,-0.773 -0.183,-0.954 -0.949,-0.946 -3.814,0.044 -7.629,0.035 -11.443,0.006 -0.602,-0.005 -0.771,0.136 -0.766,0.756 0.031,3.9 0.016,7.801 0.016,11.701 z" /></g><g
           transform="translate(647.9224,491.944)"
           id="g52"><path
             id="path54"
             style="fill:#002735;fill-opacity:1;fill-rule:nonzero;stroke:none"
             d="M 0,0 C 1.263,3.364 3.757,5.312 7.148,6.152 10.579,7.003 13.966,6.856 17.17,5.216 18.938,4.31 20.326,3.024 20.715,0.953 20.963,-0.369 20.57,-0.839 19.231,-0.843 16.116,-0.853 13,-0.846 9.885,-0.847 6.798,-0.847 3.712,-0.825 0.626,-0.862 -0.12,-0.871 -0.267,-0.709 0,0 m 20.964,-14.324 c -0.348,10e-4 -0.504,-0.147 -0.667,-0.426 -0.651,-1.121 -1.634,-1.869 -2.8,-2.399 -1.585,-0.722 -3.272,-0.997 -4.988,-1.13 -3.216,-0.251 -6.333,0.091 -9.218,1.665 -1.356,0.739 -2.504,1.701 -3.088,3.191 -0.728,1.857 -0.15,2.725 1.803,2.725 9.99,0 19.981,0.003 29.972,-0.007 0.506,-10e-4 0.858,0.005 0.965,0.658 0.476,2.913 0.739,5.83 0.358,8.775 C 32.388,5.766 28.958,11.172 22.725,14.634 17.279,17.659 11.393,18.186 5.368,17.047 -1.003,15.844 -6.177,12.65 -9.691,7.108 c -3.605,-5.686 -4.469,-11.942 -3.145,-18.446 1.739,-8.538 6.714,-14.419 15.076,-17.176 5.684,-1.873 11.446,-1.573 17.105,0.091 7.147,2.101 11.774,6.835 13.945,14.092 -4.174,0 -8.25,-0.004 -12.326,0.007" /></g></g></g></g></svg>